# xmcd
#
# Track frame offsets: 
#        150
#        12152
#        25517
#        38143
#        48185
#        59106
#        72875
#        84461
#        92218
#        103197
#        116839
#        128543
#        137663
#        148174
#        160624
#        170091
#        180828
#        191346
#        204779
#        212022
#        219663
#        231528
#        242995
#        253362
#        264397
#
# Disc length: 3665 seconds
#
# Revision: 1
# Processed by: cddbd v1.5.2PL0 Copyright (c) Steve Scherf et al.
# Submitted via: ExactAudioCopy v1.3
#
DISCID=690e4f19
DTITLE=B. J. Thomas - Texas Singer Deluxe
DYEAR=1999
DGENRE=Country
TTITLE0=Lazy Man (With The Triumphs)
TTITLE1=Tomorrow Never Comes
TTITLE2=Mama
TTITLE3=Treasure Of Love
TTITLE4=She's Riding High
TTITLE5=Bring Back The Time
TTITLE6=I Know It's Wrong (With The Triumphs)
TTITLE7=Luckiest Man In This Wide World
TTITLE8=I Just Got To Forget You
TTITLE9=Pretty Country Girl
TTITLE10=Wisdom Of A Fool
TTITLE11=Didn't It Rain
TTITLE12=Wishful Thinking
TTITLE13=Bright Night
TTITLE14=I Don't Have A Mind Of My Own
TTITLE15=The Rains Came
TTITLE16=Lazy Man
TTITLE17=I Wonder
TTITLE18=You're The One
TTITLE19=Bobbie
TTITLE20=Plain Jane
TTITLE21=I Know It's Wrong
TTITLE22=Walkin' Back
TTITLE23=Loving You
TTITLE24=I Blame Me, Not Mount Kilimanjaro
EXTD=
EXTT0=
EXTT1=
EXTT2=
EXTT3=
EXTT4=
EXTT5=
EXTT6=
EXTT7=
EXTT8=
EXTT9=
EXTT10=
EXTT11=
EXTT12=
EXTT13=
EXTT14=
EXTT15=
EXTT16=
EXTT17=
EXTT18=
EXTT19=
EXTT20=
EXTT21=
EXTT22=
EXTT23=
EXTT24=
PLAYORDER=
